HIERARCHY
ROOT joint_0
{
	OFFSET 0.000000 0.000000 0.000000
	CHANNELS 6 Xposition Yposition Zposition Zrotation Yrotation Xrotation 
	JOINT joint_1
	{
		OFFSET 11.612000 -0.419000 106.198000
		CHANNELS 3 Zrotation Yrotation Xrotation
		JOINT joint_2
		{
			OFFSET -1.708000 -1.022000 97.564090
			CHANNELS 3 Zrotation Yrotation Xrotation
			JOINT joint_3
			{
				OFFSET -4.121000 -1.538000 97.375000
				CHANNELS 3 Zrotation Yrotation Xrotation
				JOINT joint_4
				{
					OFFSET 5.442000 -2.123000 132.795900
					CHANNELS 3 Zrotation Yrotation Xrotation
					JOINT joint_5
					{
						OFFSET 21.935000 0.195000 82.975100
						CHANNELS 3 Zrotation Yrotation Xrotation
						End Site
						{
							OFFSET 0.000000 0.000000 0.000000
						}
					}
				}
				JOINT joint_6
				{
					OFFSET 4.262000 -30.048000 73.899900
					CHANNELS 3 Zrotation Yrotation Xrotation
					JOINT joint_7
					{
						OFFSET 9.731000 -136.810010 -21.963010
						CHANNELS 3 Zrotation Yrotation Xrotation
						JOINT joint_8
						{
							OFFSET 33.360000 -35.709000 -267.597900
							CHANNELS 3 Zrotation Yrotation Xrotation
							JOINT joint_9
							{
								OFFSET 36.156000 -29.759000 -240.558040
								CHANNELS 3 Zrotation Yrotation Xrotation
								End Site
								{
									OFFSET 0.000000 0.000000 0.000000
								}
							}
						}
					}
				}
				JOINT joint_10
				{
					OFFSET 2.027000 27.734000 74.914920
					CHANNELS 3 Zrotation Yrotation Xrotation
					JOINT joint_11
					{
						OFFSET -5.183000 136.784000 -23.604980
						CHANNELS 3 Zrotation Yrotation Xrotation
						JOINT joint_12
						{
							OFFSET 29.806000 37.229000 -267.809940
							CHANNELS 3 Zrotation Yrotation Xrotation
							JOINT joint_13
							{
								OFFSET 36.890000 46.524990 -237.772030
								CHANNELS 3 Zrotation Yrotation Xrotation
								End Site
								{
									OFFSET 0.000000 0.000000 0.000000
								}
							}
						}
					}
				}
			}
		}
	}
	JOINT joint_14
	{
		OFFSET -7.290000 -102.873990 -124.314940
		CHANNELS 3 Zrotation Yrotation Xrotation
		JOINT joint_15
		{
			OFFSET -15.466000 -19.909010 -438.533020
			CHANNELS 3 Zrotation Yrotation Xrotation
			JOINT joint_16
			{
				OFFSET -26.899000 -18.922000 -464.797000
				CHANNELS 3 Zrotation Yrotation Xrotation
				JOINT joint_17
				{
					OFFSET 179.329000 -12.011000 -84.174000
					CHANNELS 3 Zrotation Yrotation Xrotation
					End Site
					{
						OFFSET 0.000000 0.000000 0.000000
					}
				}
			}
		}
	}
	JOINT joint_18
	{
		OFFSET -6.225000 101.546000 -125.479980
		CHANNELS 3 Zrotation Yrotation Xrotation
		JOINT joint_19
		{
			OFFSET -13.973000 7.996000 -438.963010
			CHANNELS 3 Zrotation Yrotation Xrotation
			JOINT joint_20
			{
				OFFSET -44.294000 5.716000 -463.813970
				CHANNELS 3 Zrotation Yrotation Xrotation
				JOINT joint_21
				{
					OFFSET 178.505000 -4.689000 -85.139000
					CHANNELS 3 Zrotation Yrotation Xrotation
					End Site
					{
						OFFSET 0.000000 0.000000 0.000000
					}
				}
			}
		}
	}
}
MOTION
Frames: 7
Frame Time: 0.016667
-3338.280273 857.679443 1127.416016 0.349150 -3.672673 0.765832 -0.739277 5.074524 -0.590566 -0.781612 -1.068748 0.131739 -0.759546 1.044419 -0.116492 -0.081803 -0.553975 0.306856 0.000000 0.000000 0.000000 -0.706398 -1.979914 0.640159 0.499412 -2.153351 0.721832 3.229159 -13.952199 9.376949 0.000000 0.000000 0.000000 0.931223 -0.872131 -0.664300 -0.781512 -1.152579 -0.507113 -2.097813 -7.095525 -4.785263 0.000000 0.000000 0.000000 -0.472334 3.827290 -0.162674 -0.331857 1.534306 -1.054746 -0.218664 -2.410503 -0.263796 0.000000 0.000000 0.000000 4.813067 4.717733 0.736437 4.763787 -0.352546 0.633513 4.618103 -1.041066 2.167720 0.000000 0.000000 0.000000 
-3337.225342 857.905701 1127.500977 0.505204 -3.501606 0.793675 -0.767131 5.153761 -0.575283 -0.810898 -1.091538 0.124541 -0.787255 1.071367 -0.111704 -0.081282 -0.915755 0.306947 0.000000 0.000000 0.000000 -0.613191 -1.798184 0.739318 0.451664 -1.974073 0.530518 2.968140 -12.777537 8.700890 0.000000 0.000000 0.000000 0.979000 -0.773893 -0.741548 -0.767135 -1.055629 -0.443809 -2.117484 -7.163340 -4.841116 0.000000 0.000000 0.000000 -0.534241 3.724111 -0.183168 -0.397725 1.517515 -1.080042 -0.285449 -2.396304 -0.294134 0.000000 0.000000 0.000000 4.774391 4.547152 0.706654 4.726916 -0.316397 0.586020 4.577682 -0.998962 2.149985 0.000000 0.000000 0.000000 
-3335.645508 858.113220 1127.605957 0.660745 -3.249704 0.823699 -0.799636 5.252676 -0.547807 -0.845049 -1.120149 0.112458 -0.819323 1.102257 -0.103277 -0.077387 -1.380900 0.296537 0.000000 0.000000 0.000000 -0.527999 -1.561555 0.765510 0.396884 -1.731526 0.368968 2.754742 -11.867616 8.119503 0.000000 0.000000 0.000000 1.025664 -0.620776 -0.783371 -0.754287 -0.906495 -0.414849 -2.159940 -7.330109 -4.934694 0.000000 0.000000 0.000000 -0.611712 3.577394 -0.198179 -0.479132 1.463136 -1.108508 -0.368110 -2.404124 -0.333388 0.000000 0.000000 0.000000 4.749430 4.325245 0.668715 4.703701 -0.295604 0.535365 4.550383 -0.943544 2.138857 0.000000 0.000000 0.000000 
-3333.319092 858.308960 1127.755981 0.813917 -2.888305 0.850045 -0.832230 5.364626 -0.490594 -0.879504 -1.143175 0.088598 -0.851007 1.126851 -0.086047 -0.068957 -1.966866 0.271616 0.000000 0.000000 0.000000 -0.502685 -1.285995 0.667884 0.342376 -1.448032 0.232858 2.604457 -11.149905 7.788329 0.000000 0.000000 0.000000 1.077699 -0.455058 -0.812024 -0.733945 -0.746174 -0.411462 -2.168515 -7.298011 -5.051243 0.000000 0.000000 0.000000 -0.723887 3.377536 -0.192265 -0.593421 1.338882 -1.146965 -0.485002 -2.439522 -0.390537 0.000000 0.000000 0.000000 4.759332 4.035471 0.622566 4.715459 -0.293800 0.483400 4.556992 -0.861269 2.144579 0.000000 0.000000 0.000000 
-3330.394775 858.504639 1127.959961 0.966771 -2.433205 0.874727 -0.866191 5.490443 -0.408002 -0.915391 -1.155665 0.054338 -0.883679 1.138148 -0.060366 -0.056994 -2.659386 0.236500 0.000000 0.000000 0.000000 -0.512671 -0.985849 0.506744 0.284187 -1.141472 0.074404 2.482786 -10.458534 7.614208 0.000000 0.000000 0.000000 1.131549 -0.291696 -0.856008 -0.701682 -0.585946 -0.405065 -2.130851 -7.009168 -5.174922 0.000000 0.000000 0.000000 -0.866679 3.126793 -0.167291 -0.737129 1.159517 -1.195604 -0.632891 -2.485815 -0.462944 0.000000 0.000000 0.000000 4.797708 3.679056 0.567974 4.756067 -0.298646 0.427887 4.591275 -0.748225 2.164276 0.000000 0.000000 0.000000 
-3326.709717 858.574219 1128.041016 1.110408 -1.891277 0.913774 -0.905923 5.632036 -0.342148 -0.956049 -1.169563 0.028079 -0.921635 1.150716 -0.040072 -0.038557 -3.482359 0.180659 0.000000 0.000000 0.000000 -0.568383 -0.453370 0.142769 0.215877 -0.574097 0.172086 2.588864 -11.320975 7.647822 0.000000 0.000000 0.000000 1.177689 0.166004 -0.730221 -0.713136 -0.146290 -0.519566 -2.388372 -8.181209 -5.498014 0.000000 0.000000 0.000000 -0.984151 2.852065 -0.169699 -0.856809 0.948963 -1.218723 -0.753074 -2.626164 -0.528653 0.000000 0.000000 0.000000 4.822214 3.322019 0.503380 4.781084 -0.388278 0.373049 4.611745 -0.668337 2.176269 0.000000 0.000000 0.000000 
-3322.180420 858.427856 1127.845947 1.240844 -1.251901 0.982272 -0.957358 5.817386 -0.325779 -1.006773 -1.200405 0.023475 -0.970673 1.178285 -0.034838 -0.009777 -4.502869 0.093091 0.000000 0.000000 0.000000 -0.672338 0.509035 -0.382010 0.119509 0.458368 0.610316 3.061600 -14.820563 7.956563 0.000000 0.000000 0.000000 1.173553 1.187290 -0.489799 -0.753395 0.861627 -0.707122 -3.160953 -12.173238 -6.082364 0.000000 0.000000 0.000000 -1.032115 2.559631 -0.240963 -0.910868 0.720774 -1.188878 -0.799272 -2.944483 -0.571563 0.000000 0.000000 0.000000 4.797784 2.997608 0.421369 4.753536 -0.627003 0.326708 4.584683 -0.665717 2.163099 0.000000 0.000000 0.000000 
